#!OML:ASF I:\Actors\actors\Patient Classification 2\Patient 1\Session 1\actor1.ASF
:FULLY-SPECIFIED
:DEGREES
1170
root -0.829749 18.6013 6.12741 -3.26032 -2.00081 -2.47736
lowerback 3.05331 0.948637 3.36746
upperback 0.668084 1.39484 2.1113
thorax -0.998268 0.689724 0.225064
lowerneck -10.4966 -6.18355 -5.17481
upperneck 38.121 -9.07987 2.51628
head 15.5438 -4.27114 0.517799
rclavicle -1.96921e-015 -1.39149e-014
rhumerus -52.8883 10.449 -100.047
rradius 108.555
rwrist -2.07328
rhand -19.387 -19.4954
rfingers 7.12502
rthumb 6.93161 -49.3619
lclavicle -1.96921e-015 -1.39149e-014
lhumerus -44.6865 -4.10489 95.5765
lradius 58.4756
lwrist 12.4881
lhand -7.61734 -20.8402
lfingers 7.12502
lthumb 18.277 8.32112
rfemur 13.6735 4.77385 18.2301
rtibia -3.18055e-015
rfoot -20.2012 -12.3295
rtoes -5.48053
lfemur 0.159586 -7.08394 -12.833
ltibia 22.8709
lfoot -22.8347 12.4098
ltoes -57.3232
1171
root -0.82212 18.5996 6.13025 -3.32441 -2.24378 -2.51675
lowerback 3.04659 0.962606 3.47269
upperback 0.677916 1.4157 2.09322
thorax -0.980942 0.700112 0.147279
lowerneck -10.4112 -6.1917 -5.16424
upperneck 38.048 -9.1012 2.52484
head 15.4878 -4.28177 0.519658
rclavicle -3.27622e-014 -2.90226e-014
rhumerus -53.0691 10.4073 -100.162
rradius 108.857
rwrist -2.39337
rhand -19.3862 -19.5216
rfingers 7.12502
rthumb 6.93236 -49.388
lclavicle -3.27622e-014 -2.90226e-014
lhumerus -44.6483 -4.12277 95.6173
lradius 58.5289
lwrist 12.4624
lhand -7.66547 -20.896
lfingers 7.12502
lthumb 18.2307 8.26967
rfemur 13.711 5.01837 18.2756
rtibia 4.29375e-014
rfoot -20.1788 -12.3641
rtoes -5.57847
lfemur 0.331347 -7.14866 -12.8714
ltibia 22.8335
lfoot -22.9924 12.6534
ltoes -57.2459
1172
root -0.8167 18.599 6.1291 -3.35328 -2.39637 -2.56737
lowerback 3.07043 0.928512 3.52723
upperback 0.653469 1.3741 2.09113
thorax -1.01899 0.678475 0.115512
lowerneck -10.3822 -6.17994 -5.16951
upperneck 38.0331 -9.10153 2.56145
head 15.4763 -4.28035 0.536746
rclavicle 6.12505e-015 1.47101e-014
rhumerus -53.2408 10.5191 -100.319
rradius 108.692
rwrist -0.779711
rhand -19.7414 -18.5037
rfingers 7.12502
rthumb 6.58946 -48.3812
lclavicle 6.12505e-015 1.47101e-014
lhumerus -44.6413 -4.08949 95.6299
lradius 58.5872
lwrist 12.4967
lhand -7.7499 -20.885
lfingers 7.12502
lthumb 18.1495 8.28825
rfemur 13.7127 5.16986 18.3305
rtibia -1.59028e-014
rfoot -20.1552 -12.3941
rtoes -5.78775
lfemur 0.417662 -7.22999 -12.8691
ltibia 22.8018
lfoot -23.111 12.8639
ltoes -57.2489
1173
root -0.803029 18.5871 6.14493 -3.93815 -3.00178 -2.60846
lowerback 3.3433 1.01381 3.73645
upperback 0.884425 1.4997 2.07389
thorax -0.925656 0.743829 -0.0262982
lowerneck -10.4356 -6.15766 -5.17637
upperneck 38.0397 -9.07312 2.57254
head 15.4918 -4.26837 0.544781
rclavicle 9.79636e-015 -8.34896e-015
rhumerus -53.2291 10.5674 -100.251
rradius 108.919
rwrist -0.438893
rhand -18.8707 -19.0753
rfingers 7.12502
rthumb 7.42998 -48.9249
lclavicle 9.79636e-015 -8.34896e-015
lhumerus -44.6381 -4.08495 95.6286
lradius 58.7031
lwrist 12.5878
lhand -7.82051 -20.8962
lfingers 7.12502
lthumb 18.0815 8.28334
rfemur 14.3124 5.79285 18.4373
rtibia -5.88403e-014
rfoot -20.1882 -12.3761
rtoes -5.87813
lfemur 1.30932 -7.46865 -13.0916
ltibia 22.7755
lfoot -23.6415 13.4811
ltoes -57.1625
1174
root -0.795077 18.5833 6.15161 -4.15199 -3.32145 -2.60454
lowerback 3.41407 1.04272 3.83492
upperback 0.97541 1.54123 2.03512
thorax -0.866907 0.766071 -0.122903
lowerneck -10.5113 -6.14696 -5.13501
upperneck 38.0369 -9.06244 2.55741
head 15.5038 -4.2599 0.52991
rclavicle -5.49143e-015 -3.22031e-014
rhumerus -53.1924 10.6357 -100.222
rradius 109.145
rwrist -0.39513
rhand -18.3463 -19.449
rfingers 7.12502
rthumb 7.93614 -49.28
lclavicle -5.49143e-015 -3.22031e-014
lhumerus -44.6008 -4.16664 95.6143
lradius 58.8254
lwrist 12.7132
lhand -7.78292 -20.901
lfingers 7.12502
lthumb 18.1177 8.27515
rfemur 14.5164 6.12251 18.4525
rtibia 1.59028e-015
rfoot -20.225 -12.3555
rtoes -5.7075
lfemur 1.66391 -7.51062 -13.2115
ltibia 22.7533
lfoot -23.8425 13.6938
ltoes -57.0188
1175
root -0.788459 18.583 6.15396 -4.15722 -3.50609 -2.58097
lowerback 3.37572 1.06714 3.90268
upperback 0.940057 1.57461 1.97869
thorax -0.8773 0.782178 -0.219457
lowerneck -10.4716 -6.13904 -5.13523
upperneck 38.0522 -9.07397 2.60364
head 15.5059 -4.26038 0.548616
rclavicle 8.75895e-015 -1.03368e-014
rhumerus -53.2503 10.6574 -100.225
rradius 109.367
rwrist -0.662148
rhand -18.2838 -19.6626
rfingers 7.12502
rthumb 7.99645 -49.4914
lclavicle 8.75895e-015 -1.03368e-014
lhumerus -44.6635 -4.33696 95.6368
lradius 58.9296
lwrist 12.844
lhand -7.76705 -20.8459
lfingers 7.12502
lthumb 18.133 8.32884
rfemur 14.4894 6.3138 18.4147
rtibia -1.43125e-014
rfoot -20.2249 -12.3547
rtoes -5.5825
lfemur 1.72981 -7.46608 -13.286
ltibia 22.7359
lfoot -23.8963 13.7975
ltoes -56.9964
1176
root -0.782399 18.5826 6.15512 -4.14476 -3.6979 -2.58171
lowerback 3.33327 1.09616 3.97211
upperback 0.872585 1.61545 1.94609
thorax -0.918661 0.801161 -0.29309
lowerneck -10.3459 -6.13787 -5.21812
upperneck 38.0633 -9.08409 2.66774
head 15.4925 -4.27151 0.59247
rclavicle -3.46631e-015 1.82882e-014
rhumerus -53.3012 10.6173 -100.1
rradius 109.779
rwrist -1.78278
rhand -17.7617 -20.6162
rfingers 7.12502
rthumb 8.50035 -50.4251
lclavicle -3.46631e-015 1.82882e-014
lhumerus -44.8335 -4.47434 95.6806
lradius 59.0687
lwrist 12.8965
lhand -7.77146 -20.8791
lfingers 7.12502
lthumb 18.1287 8.29611
rfemur 14.4377 6.50877 18.4062
rtibia 0
rfoot -20.2079 -12.3396
rtoes -5.347
lfemur 1.78007 -7.56814 -13.3657
ltibia 22.7319
lfoot -24.0569 14.101
ltoes -57.0187
1177
root -0.778745 18.5825 6.15242 -4.14295 -3.83546 -2.6104
lowerback 3.36485 1.09431 4.01675
upperback 0.822804 1.61828 1.94791
thorax -0.9862 0.800896 -0.317584
lowerneck -10.272 -6.14841 -5.27496
upperneck 38.0457 -9.08713 2.65994
head 15.4697 -4.28484 0.600982
rclavicle 3.47873e-014 -3.97569e-016
rhumerus -53.3712 10.777 -100.125
rradius 109.628
rwrist -0.761636
rhand -18.2927 -19.7626
rfingers 7.12502
rthumb 7.98782 -49.5917
lclavicle 3.47873e-014 -3.97569e-016
lhumerus -44.9623 -4.5148 95.7057
lradius 59.2219
lwrist 12.8735
lhand -7.74239 -20.8895
lfingers 7.12502
lthumb 18.1567 8.28307
rfemur 14.4094 6.64474 18.4397
rtibia -6.04305e-014
rfoot -20.21 -12.3205
rtoes -5.22797
lfemur 1.8108 -7.64435 -13.3809
ltibia 22.7308
lfoot -24.1533 14.2856
ltoes -56.9705
1178
root -0.776049 18.583 6.14835 -4.12249 -3.92224 -2.58936
lowerback 3.41461 1.08464 4.00882
upperback 0.771529 1.60977 1.92655
thorax -1.06666 0.794834 -0.336527
lowerneck -10.2305 -6.16806 -5.1948
upperneck 38.0043 -9.09037 2.5318
head 15.4249 -4.29446 0.534588
rclavicle 6.03808e-015 8.74653e-015
rhumerus -53.3322 10.832 -100.073
rradius 109.792
rwrist -1.10512
rhand -18.0664 -19.9838
rfingers 7.12502
rthumb 8.20624 -49.8044
lclavicle 6.03808e-015 8.74653e-015
lhumerus -45.0129 -4.57264 95.7081
lradius 59.2764
lwrist 12.9276
lhand -7.69689 -20.766
lfingers 7.12502
lthumb 18.2005 8.40247
rfemur 14.3641 6.73308 18.4174
rtibia 6.36111e-015
rfoot -20.2332 -12.3264
rtoes -5.23277
lfemur 1.78676 -7.57281 -13.3994
ltibia 22.7338
lfoot -24.1533 14.2592
ltoes -56.9315
1179
root -0.772768 18.5834 6.1474 -4.10539 -4.05198 -2.54001
lowerback 3.39834 1.09383 3.99744
upperback 0.739901 1.6213 1.87729
thorax -1.08854 0.799914 -0.381217
lowerneck -10.1833 -6.19289 -5.03976
upperneck 37.9589 -9.10677 2.36607
head 15.3697 -4.30441 0.438032
rclavicle -6.75868e-015 -2.18663e-014
rhumerus -53.1937 10.7422 -99.9194
rradius 110.262
rwrist -2.86201
rhand -17.0801 -21.4226
rfingers 7.12502
rthumb 9.15809 -51.2038
lclavicle -6.75868e-015 -2.18663e-014
lhumerus -45.0159 -4.60694 95.6558
lradius 59.257
lwrist 12.9498
lhand -7.60332 -20.7207
lfingers 7.12502
lthumb 18.2905 8.43934
rfemur 14.3133 6.86789 18.3618
rtibia 1.27222e-014
rfoot -20.2355 -12.3467
rtoes -5.21294
lfemur 1.78786 -7.51544 -13.4682
ltibia 22.7377
lfoot -24.2094 14.2795
ltoes -56.8632
1180
root -0.769479 18.5833 6.14749 -4.1037 -4.21657 -2.55556
lowerback 3.35476 1.10928 4.03246
upperback 0.738008 1.64045 1.86382
thorax -1.06401 0.809732 -0.414346
lowerneck -10.1503 -6.20035 -5.01138
upperneck 37.9244 -9.13498 2.38538
head 15.3456 -4.31188 0.438075
rclavicle -1.09704e-014 -7.15625e-015
rhumerus -53.0911 10.7755 -99.8799
rradius 110.298
rwrist -3.0731
rhand -16.9082 -21.4814
rfingers 7.12502
rthumb 9.32397 -51.2552
lclavicle -1.09704e-014 -7.15625e-015
lhumerus -45.0128 -4.52299 95.5843
lradius 59.235
lwrist 12.7989
lhand -7.51198 -20.8028
lfingers 7.12502
lthumb 18.3784 8.34902
rfemur 14.2831 7.03222 18.3813
rtibia 1.59028e-014
rfoot -20.2197 -12.354
rtoes -5.19807
lfemur 1.83443 -7.54037 -13.4924
ltibia 22.7343
lfoot -24.3221 14.3898
ltoes -56.7512
1181
root -0.766683 18.5836 6.14637 -4.09435 -4.35338 -2.56532
lowerback 3.32008 1.13002 4.05645
upperback 0.733185 1.66704 1.86275
thorax -1.04785 0.823137 -0.42912
lowerneck -10.1124 -6.19553 -5.04682
upperneck 37.8553 -9.15575 2.48626
head 15.3128 -4.31445 0.484982
rclavicle -1.54679e-014 3.97569e-016
rhumerus -53.0617 10.9059 -99.9563
rradius 109.929
rwrist -1.63041
rhand -17.7325 -20.3591
rfingers 7.12502
rthumb 8.52853 -50.1669
lclavicle -1.54679e-014 3.97569e-016
lhumerus -45.0391 -4.47686 95.5707
lradius 59.225
lwrist 12.6905
lhand -7.5078 -20.8613
lfingers 7.12502
lthumb 18.3824 8.29015
rfemur 14.247 7.16876 18.3936
rtibia -1.59028e-015
rfoot -20.2107 -12.3616
rtoes -5.11941
lfemur 1.86593 -7.57491 -13.5204
ltibia 22.726
lfoot -24.3909 14.493
ltoes -56.6407
1182
root -0.765271 18.5835 6.14465 -4.10798 -4.45642 -2.53643
lowerback 3.31244 1.16007 4.047
upperback 0.733501 1.70606 1.84506
thorax -1.04155 0.84273 -0.443303
lowerneck -10.0666 -6.20856 -5.02055
upperneck 37.7619 -9.17748 2.48404
head 15.2548 -4.32276 0.478724
rclavicle 7.09413e-015 1.98785e-014
rhumerus -52.9649 10.8279 -99.8352
rradius 109.957
rwrist -1.84339
rhand -17.6449 -20.3664
rfingers 7.12502
rthumb 8.61302 -50.1707
lclavicle 7.09413e-015 1.98785e-014
lhumerus -45.0745 -4.54302 95.5919
lradius 59.218
lwrist 12.6893
lhand -7.53197 -20.8985
lfingers 7.12502
lthumb 18.3591 8.25512
rfemur 14.2347 7.27501 18.3673
rtibia -1.59028e-015
rfoot -20.2049 -12.3938
rtoes -5.14692
lfemur 1.90229 -7.55299 -13.5728
ltibia 22.7188
lfoot -24.3985 14.5723
ltoes -56.6331
1183
root -0.764921 18.5833 6.14292 -4.12367 -4.55528 -2.53346
lowerback 3.31417 1.18248 4.03761
upperback 0.739446 1.73535 1.83934
thorax -1.03543 0.85753 -0.445027
lowerneck -10.0807 -6.22785 -4.97662
upperneck 37.7258 -9.1908 2.41842
head 15.2334 -4.33155 0.441425
rclavicle -1.64991e-014 9.93923e-015
rhumerus -52.8471 10.6981 -99.6651
rradius 110.254
rwrist -3.06975
rhand -16.985 -21.3978
rfingers 7.12502
rthumb 9.24979 -51.1749
lclavicle -1.64991e-014 9.93923e-015
lhumerus -45.0856 -4.55249 95.5773
lradius 59.1774
lwrist 12.6577
lhand -7.53563 -20.9735
lfingers 7.12502
lthumb 18.3556 8.18044
rfemur 14.2307 7.37437 18.3723
rtibia 3.18055e-015
rfoot -20.19 -12.4139
rtoes -5.30235
lfemur 1.94519 -7.52275 -13.5867
ltibia 22.7071
lfoot -24.4585 14.6394
ltoes -56.6848
